# xmcd CD database file
#
# Track frame offsets:
#	150
#	7069
#	18685
#	30729
#	42148
#	52465
#	64226
#	76122
#	88111
#	99147
#	110537
#	123058
#	136806
#	152884
#	166438
#	173794
#	188938
#	200330
#	211615
#	220865
#
# Disc length: 3094 seconds
#
# Revision: 1
# Processed by: cddbd v1.5.2PL0 Copyright (c) Steve Scherf et al.
# Submitted via: jetAudio 5
#
DISCID=0f0c1414
DTITLE=Various Country - That's Country CD-19
DYEAR=1900
DGENRE=Country
TTITLE0=boxcar willie - I saw the light
TTITLE1=don williams - follow me back to louisville
TTITLE2=billie joe spears - look what they've done with my song
TTITLE3=wanda jackson - in the middle of a heartache
TTITLE4=dave dudley - six day's on the road
TTITLE5=kenny rogers - me and bobby McGee
TTITLE6=porter wagoner - I'll start tomorrow
TTITLE7=hank locklin - queen of heart
TTITLE8=waylon jennings - dream baby
TTITLE9=freddy fender - I'm leaving it all up to you
TTITLE10=lynn anderson - stand by your man
TTITLE11=merle haggard - that's the way love goes
TTITLE12=david fritzell - rag time blues guitar
TTITLE13=willie nelson - no tomorrow in sight
TTITLE14=sir douglas uintett - cotton eyed joe
TTITLE15=willie nelson - face of a fighter
TTITLE16=willie nelson - touch me
TTITLE17=waylon jennings - sally was a good old girl
TTITLE18=don williams - appartement 9
TTITLE19=loretta lynn - love is the foundation
EXTD=
EXTT0=
EXTT1=
EXTT2=
EXTT3=
EXTT4=
EXTT5=
EXTT6=
EXTT7=
EXTT8=
EXTT9=
EXTT10=
EXTT11=
EXTT12=
EXTT13=
EXTT14=
EXTT15=
EXTT16=
EXTT17=
EXTT18=
EXTT19=
PLAYORDER=
